<svg xmlns="http://www.w3.org/2000/svg" xmlns:xlink="http://www.w3.org/1999/xlink" width="1040" height="711.3"><rect width="1040" height="711.3" rx="5" ry="5" class="a"/><svg y="0%" x="0%"><circle cx="20" cy="20" r="6" fill="#ff5f58"/><circle cx="40" cy="20" r="6" fill="#ffbd2e"/><circle cx="60" cy="20" r="6" fill="#18c132"/></svg><svg height="651.3" viewBox="0 0 100 65.13" width="1000" x="15" xmlns="http://www.w3.org/2000/svg" xmlns:xlink="http://www.w3.org/1999/xlink" y="50"><style>@keyframes j{0%{transform:translateX(0)}9.9%{transform:translateX(-100px)}39.9%{transform:translateX(-300px)}45%{transform:translateX(-500px)}48.8%{transform:translateX(-600px)}50.7%{transform:translateX(-800px)}55.4%{transform:translateX(-1000px)}57.2%{transform:translateX(-1200px)}82.4%{transform:translateX(-1400px)}to{transform:translateX(-1600px)}}.a{fill:#282d35}.f,.g{fill:#b9c0cb;white-space:pre}.g{font-weight:700}</style><g font-family="Monaco,Consolas,Menlo,'Bitstream Vera Sans Mono','Powerline Symbols',monospace" font-size="1.67"><defs><symbol id="1"><text y="1.67" class="f">Choose</text><text x="7.014" y="1.67" class="f">a</text><text x="9.018" y="1.67" class="f">link</text><text x="14.028" y="1.67" class="f">(or</text><text x="18.036" y="1.67" class="f">press</text><text x="24.048" y="1.67" class="f">ESC)</text><text x="29.058" y="1.67" class="f">-</text><text x="31.062" y="1.67" class="f">g|</text></symbol><symbol id="2"><text y="1.67" class="f">Choose</text><text x="7.014" y="1.67" class="f">a</text><text x="9.018" y="1.67" class="f">link</text><text x="14.028" y="1.67" class="f">(or</text><text x="18.036" y="1.67" class="f">press</text><text x="24.048" y="1.67" class="f">ESC)</text><text x="29.058" y="1.67" class="f">-</text><text x="31.062" y="1.67" class="f">gi|</text></symbol><symbol id="3"><text y="1.67" class="f">&gt;</text><text x="2.004" y="1.67" class="g">gi</text><text x="4.008" y="1.67" class="f">t:</text><text x="7.014" y="1.67" class="f">https://github.com/bucket-robotics/internal</text></symbol><symbol id="4"><text y="1.67" class="f">Choose</text><text x="7.014" y="1.67" class="f">a</text><text x="9.018" y="1.67" class="f">link</text><text x="14.028" y="1.67" class="f">(or</text><text x="18.036" y="1.67" class="f">press</text><text x="24.048" y="1.67" class="f">ESC)</text><text x="29.058" y="1.67" class="f">-</text><text x="31.062" y="1.67" class="f">gith|</text></symbol><symbol id="5"><text y="1.67" class="f">Choose</text><text x="7.014" y="1.67" class="f">a</text><text x="9.018" y="1.67" class="f">link</text><text x="14.028" y="1.67" class="f">(or</text><text x="18.036" y="1.67" class="f">press</text><text x="24.048" y="1.67" class="f">ESC)</text><text x="29.058" y="1.67" class="f">-</text><text x="31.062" y="1.67" class="f">githu|</text></symbol><symbol id="6"><text y="1.67" class="f">Choose</text><text x="7.014" y="1.67" class="f">a</text><text x="9.018" y="1.67" class="f">link</text><text x="14.028" y="1.67" class="f">(or</text><text x="18.036" y="1.67" class="f">press</text><text x="24.048" y="1.67" class="f">ESC)</text><text x="29.058" y="1.67" class="f">-</text><text x="31.062" y="1.67" class="f">github|</text></symbol><symbol id="a"><path fill="transparent" d="M0 0h100v30H0z"/></symbol><symbol id="b"><path fill="#6f7683" d="M0 0h1.102v2.171H0z"/></symbol></defs><path class="a" d="M0 0h100v65.13H0z"/><g style="animation-duration:2.805863s;animation-iteration-count:infinite;animation-name:j;animation-timing-function:steps(1,end)"><svg width="1700"><svg><use xlink:href="#a"/><use xlink:href="#b" x="-.004"/></svg><svg x="100"><use xlink:href="#a"/><text y="1.67" class="f">Choose</text><text x="7.014" y="1.67" class="f">a</text><text x="9.018" y="1.67" class="f">link</text><text x="14.028" y="1.67" class="f">(or</text><text x="18.036" y="1.67" class="f">press</text><text x="24.048" y="1.67" class="f">ESC)</text><text x="29.058" y="1.67" class="f">-</text><text x="31.062" y="1.67" class="f">|</text><text x="2.004" y="3.841" class="f">c:</text><text x="5.01" y="3.841" class="f">https://calendar.google.com/</text><text x="2.004" y="6.012" class="f">git:</text><text x="7.014" y="6.012" class="f">https://github.com/bucket-robotics/internal</text><text x="2.004" y="8.183" class="f">onshape:</text><text x="11.022" y="8.183" class="f">https://cad.onshape.com</text><text x="2.004" y="10.354" class="f">companies:</text><text x="13.026" y="10.354" class="f">https://bookface.ycombinator.com/directory?query</text><text x="2.004" y="12.525" class="f">rust-std:</text><text x="12.024" y="12.525" class="f">https://doc.rust-lang.org/std/</text><text x="2.004" y="14.696" class="f">bf:</text><text x="6.012" y="14.696" class="f">https://bookface.ycombinator.com/home</text><text x="2.004" y="16.867" class="f">db:</text><text x="6.012" y="16.867" class="f">https://neon.tech</text><text x="2.004" y="19.038" class="f">goals:</text><text x="9.018" y="19.038" class="f">https://orgorg.us/goals</text><text x="2.004" y="21.209" class="f">deck:</text><text x="8.016" y="21.209" class="f">https://slides.google.com/create</text><text x="2.004" y="23.38" class="f">doc:</text><text x="7.014" y="23.38" class="f">https://docs.google.com/create</text><text x="2.004" y="25.551" class="f">analytics:</text><text x="13.026" y="25.551" class="f">https://analytics.google.com/</text><text x="2.004" y="27.722" class="f">oncall:</text><text x="10.02" y="27.722" class="f">https://orgorg.us/oncall</text><text x="2.004" y="29.893" class="f">monitor:</text><text x="11.022" y="29.893" class="f">https://sentry.io/</text><text x="2.004" y="32.064" class="f">leads:</text><text x="9.018" y="32.064" class="f">https://www.apollo.io/</text><text x="2.004" y="34.235" class="f">launch:</text><text x="10.02" y="34.235" class="f">https://www.ycombinator.com/launches</text><text x="2.004" y="36.406" class="f">expense:</text><text x="11.022" y="36.406" class="f">https://www.expensify.com/</text><text x="2.004" y="38.577" class="f">apollo:</text><text x="10.02" y="38.577" class="f">https://www.apollo.io/</text><text x="2.004" y="40.748" class="f">shortlinks:</text><text x="14.028" y="40.748" class="f">https://orgorg.us/go</text><text x="2.004" y="42.919" class="f">lightning:</text><text x="13.026" y="42.919" class="f">https://lightning.ai/docs/pytorch/stable/</text><text x="2.004" y="45.09" class="f">unreal-cpp:</text><text x="14.028" y="45.09" class="f">https://dev.epicgames.com/documentation/en-us/unreal-engine/API</text><text x="2.004" y="47.261" class="f">productivity-repo:</text><text x="21.042" y="47.261" class="f">https://github.com/bucket-robotics/productivity</text><text x="2.004" y="49.432" class="f">marketing:</text><text x="13.026" y="49.432" class="f">https://frame.io/</text><text x="2.004" y="51.603" class="f">sales-dash:</text><text x="14.028" y="51.603" class="f">https://orgorg.us/@me</text></svg><svg x="200"><use xlink:href="#a"/><use xlink:href="#1"/></svg><svg x="300"><use xlink:href="#a"/><use xlink:href="#1"/><text y="3.841" class="f">&gt;</text><text x="2.004" y="3.841" class="g">g</text><text x="3.006" y="3.841" class="f">it:</text><text x="7.014" y="3.841" class="f">https://github.com/bucket-robotics/internal</text><text x="2.004" y="6.012" class="g">g</text><text x="3.006" y="6.012" class="f">oals:</text><text x="9.018" y="6.012" class="f">https://orgorg.us/goals</text><text x="2.004" y="8.183" class="f">shortlinks:</text><text x="14.028" y="8.183" class="f">https://orgorg.us/</text><text x="32.064" y="8.183" class="g">g</text><text x="33.066" y="8.183" class="f">o</text><text x="2.004" y="10.354" class="f">productivity-repo:</text><text x="21.042" y="10.354" class="f">https://</text><text x="29.058" y="10.354" class="g">g</text><text x="30.06" y="10.354" class="f">ithub.com/bucket-robotics/productivity</text><text x="2.004" y="12.525" class="f">c:</text><text x="5.01" y="12.525" class="f">https://calendar.</text><text x="22.044" y="12.525" class="g">g</text><text x="23.046" y="12.525" class="f">oogle.com/</text><text x="2.004" y="14.696" class="f">deck:</text><text x="8.016" y="14.696" class="f">https://slides.</text><text x="23.046" y="14.696" class="g">g</text><text x="24.048" y="14.696" class="f">oogle.com/create</text><text x="2.004" y="16.867" class="f">doc:</text><text x="7.014" y="16.867" class="f">https://docs.</text><text x="20.04" y="16.867" class="g">g</text><text x="21.042" y="16.867" class="f">oogle.com/create</text><text x="2.004" y="19.038" class="f">analytics:</text><text x="13.026" y="19.038" class="f">https://analytics.</text><text x="31.062" y="19.038" class="g">g</text><text x="32.064" y="19.038" class="f">oogle.com/</text><text x="2.004" y="21.209" class="f">rust-std:</text><text x="12.024" y="21.209" class="f">https://doc.rust-lang.or</text><text x="36.072" y="21.209" class="g">g</text><text x="37.074" y="21.209" class="f">/std/</text><text x="2.004" y="23.38" class="f">oncall:</text><text x="10.02" y="23.38" class="f">https://orgor</text><text x="23.046" y="23.38" class="g">g</text><text x="24.048" y="23.38" class="f">.us/oncall</text><text x="2.004" y="25.551" class="f">lightning:</text><text x="13.026" y="25.551" class="f">https://lightnin</text><text x="29.058" y="25.551" class="g">g</text><text x="30.06" y="25.551" class="f">.ai/docs/pytorch/stable/</text><text x="2.004" y="27.722" class="f">unreal-cpp:</text><text x="14.028" y="27.722" class="f">https://dev.epicgames.com/documentation/en-us/unreal-en</text><text x="69.138" y="27.722" class="g">g</text><text x="70.14" y="27.722" class="f">ine/API</text><text x="2.004" y="29.893" class="f">marketin</text><text x="10.02" y="29.893" class="g">g</text><text x="11.022" y="29.893" class="f">:</text><text x="13.026" y="29.893" class="f">https://frame.io/</text><text x="2.004" y="32.064" class="f">sales-dash:</text><text x="14.028" y="32.064" class="f">https://orgor</text><text x="27.054" y="32.064" class="g">g</text><text x="28.056" y="32.064" class="f">.us/@me</text></svg><svg x="400"><use xlink:href="#a"/><use xlink:href="#2"/><use xlink:href="#3" y="2.171"/></svg><svg x="500"><use xlink:href="#a"/><use xlink:href="#2"/><use xlink:href="#3" y="2.171"/><text x="2.004" y="6.012" class="f">productivity-repo:</text><text x="21.042" y="6.012" class="f">https://</text><text x="29.058" y="6.012" class="g">gi</text><text x="31.062" y="6.012" class="f">thub.com/bucket-robotics/productivity</text><text x="2.004" y="8.183" class="f">unreal-cpp:</text><text x="14.028" y="8.183" class="f">https://dev.epicgames.com/documentation/en-us/unreal-en</text><text x="69.138" y="8.183" class="g">gi</text><text x="71.142" y="8.183" class="f">ne/API</text><text x="2.004" y="10.354" class="f">lightning:</text><text x="13.026" y="10.354" class="f">https://lightnin</text><text x="29.058" y="10.354" class="g">g</text><text x="30.06" y="10.354" class="f">.a</text><text x="32.064" y="10.354" class="g">i</text><text x="33.066" y="10.354" class="f">/docs/pytorch/stable/</text><text x="2.004" y="12.525" class="f">marketin</text><text x="10.02" y="12.525" class="g">g</text><text x="11.022" y="12.525" class="f">:</text><text x="13.026" y="12.525" class="f">https://frame.</text><text x="27.054" y="12.525" class="g">i</text><text x="28.056" y="12.525" class="f">o/</text></svg><svg x="600"><use xlink:href="#a"/><text y="1.67" class="f">Choose</text><text x="7.014" y="1.67" class="f">a</text><text x="9.018" y="1.67" class="f">link</text><text x="14.028" y="1.67" class="f">(or</text><text x="18.036" y="1.67" class="f">press</text><text x="24.048" y="1.67" class="f">ESC)</text><text x="29.058" y="1.67" class="f">-</text><text x="31.062" y="1.67" class="f">git|</text><text y="3.841" class="f">&gt;</text><text x="2.004" y="3.841" class="g">git</text><text x="5.01" y="3.841" class="f">:</text><text x="7.014" y="3.841" class="f">https://github.com/bucket-robotics/internal</text><text x="2.004" y="6.012" class="f">productivity-repo:</text><text x="21.042" y="6.012" class="f">https://</text><text x="29.058" y="6.012" class="g">git</text><text x="32.064" y="6.012" class="f">hub.com/bucket-robotics/productivity</text><text x="2.004" y="8.183" class="f">li</text><text x="4.008" y="8.183" class="g">g</text><text x="5.01" y="8.183" class="f">htn</text><text x="8.016" y="8.183" class="g">i</text><text x="9.018" y="8.183" class="f">ng:</text><text x="13.026" y="8.183" class="f">h</text><text x="14.028" y="8.183" class="g">t</text><text x="15.03" y="8.183" class="f">tps://lightning.ai/docs/pytorch/stable/</text></svg><svg x="700"><use xlink:href="#a"/><use xlink:href="#4"/></svg><svg x="800"><use xlink:href="#a"/><use xlink:href="#4"/><text y="3.841" class="f">&gt;</text><text x="2.004" y="3.841" class="g">git</text><text x="5.01" y="3.841" class="f">:</text><text x="7.014" y="3.841" class="g">h</text><text x="8.016" y="3.841" class="f">ttps://github.com/bucket-robotics/internal</text><text x="2.004" y="6.012" class="f">productivity-repo:</text><text x="21.042" y="6.012" class="f">https://</text><text x="29.058" y="6.012" class="g">gith</text><text x="33.066" y="6.012" class="f">ub.com/bucket-robotics/productivity</text><text x="2.004" y="8.183" class="f">lightning:</text><text x="13.026" y="8.183" class="f">https://lightnin</text><text x="29.058" y="8.183" class="g">g</text><text x="30.06" y="8.183" class="f">.a</text><text x="32.064" y="8.183" class="g">i</text><text x="33.066" y="8.183" class="f">/docs/py</text><text x="41.082" y="8.183" class="g">t</text><text x="42.084" y="8.183" class="f">orc</text><text x="45.09" y="8.183" class="g">h</text><text x="46.092" y="8.183" class="f">/stable/</text></svg><svg x="900"><use xlink:href="#a"/><use xlink:href="#5"/></svg><svg x="1000"><use xlink:href="#a"/><use xlink:href="#5"/><text y="3.841" class="f">&gt;</text><text x="2.004" y="3.841" class="f">git:</text><text x="7.014" y="3.841" class="f">https://</text><text x="15.03" y="3.841" class="g">githu</text><text x="20.04" y="3.841" class="f">b.com/bucket-robotics/internal</text><text x="2.004" y="6.012" class="f">productivity-repo:</text><text x="21.042" y="6.012" class="f">https://</text><text x="29.058" y="6.012" class="g">githu</text><text x="34.068" y="6.012" class="f">b.com/bucket-robotics/productivity</text></svg><svg x="1100"><use xlink:href="#a"/><use xlink:href="#6"/></svg><svg x="1200"><use xlink:href="#a"/><use xlink:href="#6"/><text y="3.841" class="f">&gt;</text><text x="2.004" y="3.841" class="f">git:</text><text x="7.014" y="3.841" class="f">https://</text><text x="15.03" y="3.841" class="g">github</text><text x="21.042" y="3.841" class="f">.com/bucket-robotics/internal</text><text x="2.004" y="6.012" class="f">productivity-repo:</text><text x="21.042" y="6.012" class="f">https://</text><text x="29.058" y="6.012" class="g">github</text><text x="35.07" y="6.012" class="f">.com/bucket-robotics/productivity</text></svg><svg x="1300"><use xlink:href="#a"/><use xlink:href="#6"/></svg><svg x="1400"><use xlink:href="#a"/><use xlink:href="#6"/><text x="2.004" y="3.841" class="f">git:</text><text x="7.014" y="3.841" class="f">https://</text><text x="15.03" y="3.841" class="g">github</text><text x="21.042" y="3.841" class="f">.com/bucket-robotics/internal</text><text y="6.012" class="f">&gt;</text><text x="2.004" y="6.012" class="f">productivity-repo:</text><text x="21.042" y="6.012" class="f">https://</text><text x="29.058" y="6.012" class="g">github</text><text x="35.07" y="6.012" class="f">.com/bucket-robotics/productivity</text></svg><svg x="1500"><use xlink:href="#a"/></svg><svg x="1600"><use xlink:href="#a"/><use xlink:href="#b" x="-.004" y="2.146"/><text y="1.67" class="f">Choose</text><text x="7.014" y="1.67" class="f">a</text><text x="9.018" y="1.67" class="f">link</text><text x="14.028" y="1.67" class="f">(or</text><text x="18.036" y="1.67" class="f">press</text><text x="24.048" y="1.67" class="f">ESC)</text><text x="29.058" y="1.67" class="f">-:</text><text x="32.064" y="1.67" class="f">productivity-repo:</text><text x="51.102" y="1.67" class="f">https://github.com/bucket-robotics/productivity</text></svg></svg></g></g></svg></svg>
